<svg width="24" height="25" viewBox="0 0 24 25" fill="none" xmlns="http://www.w3.org/2000/svg">
<path d="M6 2.5C4.9 2.5 4.01 3.4 4.01 4.5L4 20.5C4 21.6 4.89 22.5 5.99 22.5H18C19.1 22.5 20 21.6 20 20.5V8.5L14 2.5H6ZM13 9.5V4L18.5 9.5H13Z" fill="white" fill-opacity="0.8"/>
<path d="M8.80859 18.7539V14.8125H9.97656V18.7539C9.97656 19.1341 9.89323 19.4609 9.72656 19.7344C9.5599 20.0052 9.33203 20.2135 9.04297 20.3594C8.75651 20.5052 8.43359 20.5781 8.07422 20.5781C7.70182 20.5781 7.3724 20.5156 7.08594 20.3906C6.79948 20.2656 6.57422 20.0742 6.41016 19.8164C6.24609 19.556 6.16406 19.2266 6.16406 18.8281H7.33984C7.33984 19.0365 7.36849 19.2018 7.42578 19.3242C7.48568 19.4466 7.57031 19.5339 7.67969 19.5859C7.78906 19.638 7.92057 19.6641 8.07422 19.6641C8.22266 19.6641 8.35156 19.6289 8.46094 19.5586C8.57031 19.4883 8.65495 19.3854 8.71484 19.25C8.77734 19.1146 8.80859 18.9492 8.80859 18.7539ZM13.9375 19.0117C13.9375 18.9102 13.9219 18.819 13.8906 18.7383C13.862 18.6549 13.8073 18.5794 13.7266 18.5117C13.6458 18.4414 13.5326 18.3724 13.3867 18.3047C13.2409 18.237 13.0521 18.1667 12.8203 18.0938C12.5625 18.0104 12.3177 17.9167 12.0859 17.8125C11.8568 17.7083 11.6536 17.5872 11.4766 17.4492C11.3021 17.3086 11.1641 17.1458 11.0625 16.9609C10.9635 16.776 10.9141 16.5612 10.9141 16.3164C10.9141 16.0794 10.9661 15.8646 11.0703 15.6719C11.1745 15.4766 11.3203 15.3099 11.5078 15.1719C11.6953 15.0312 11.9167 14.9232 12.1719 14.8477C12.4297 14.7721 12.7122 14.7344 13.0195 14.7344C13.4388 14.7344 13.8047 14.8099 14.1172 14.9609C14.4297 15.112 14.6719 15.319 14.8438 15.582C15.0182 15.8451 15.1055 16.1458 15.1055 16.4844H13.9414C13.9414 16.3177 13.9062 16.1719 13.8359 16.0469C13.7682 15.9193 13.6641 15.819 13.5234 15.7461C13.3854 15.6732 13.2109 15.6367 13 15.6367C12.7969 15.6367 12.6276 15.668 12.4922 15.7305C12.3568 15.7904 12.2552 15.8724 12.1875 15.9766C12.1198 16.0781 12.0859 16.1927 12.0859 16.3203C12.0859 16.4167 12.1094 16.5039 12.1562 16.582C12.2057 16.6602 12.2786 16.7331 12.375 16.8008C12.4714 16.8685 12.5898 16.9323 12.7305 16.9922C12.8711 17.0521 13.0339 17.1107 13.2188 17.168C13.5286 17.2617 13.8008 17.3672 14.0352 17.4844C14.2721 17.6016 14.4701 17.7331 14.6289 17.8789C14.7878 18.0247 14.9076 18.1901 14.9883 18.375C15.069 18.5599 15.1094 18.7695 15.1094 19.0039C15.1094 19.2513 15.0612 19.4727 14.9648 19.668C14.8685 19.8633 14.7292 20.0286 14.5469 20.1641C14.3646 20.2995 14.1471 20.4023 13.8945 20.4727C13.6419 20.543 13.3594 20.5781 13.0469 20.5781C12.7656 20.5781 12.4883 20.5417 12.2148 20.4688C11.9414 20.3932 11.6927 20.2799 11.4688 20.1289C11.2474 19.9779 11.0703 19.7852 10.9375 19.5508C10.8047 19.3164 10.7383 19.0391 10.7383 18.7188H11.9141C11.9141 18.8958 11.9414 19.0456 11.9961 19.168C12.0508 19.2904 12.1276 19.3893 12.2266 19.4648C12.3281 19.5404 12.4479 19.5951 12.5859 19.6289C12.7266 19.6628 12.8802 19.6797 13.0469 19.6797C13.25 19.6797 13.4167 19.651 13.5469 19.5938C13.6797 19.5365 13.7773 19.457 13.8398 19.3555C13.9049 19.2539 13.9375 19.1393 13.9375 19.0117Z" fill="black" fill-opacity="0.8"/>
</svg>
