<svg width="28" height="28" viewBox="0 0 28 28" fill="none" xmlns="http://www.w3.org/2000/svg">
<path d="M22.8747 21.8705C22.8747 22.8983 22.0394 23.7651 21.0116 23.7651H6.10274C5.0749 23.7651 4.23957 22.8983 4.23957 21.8705V6.96162C4.23957 5.93378 5.0749 5.12878 6.10274 5.12878H14.7991V3.88745H6.10274C4.39007 3.88745 2.99707 5.25012 2.99707 6.96278V21.8705C2.99707 23.5831 4.39007 25.0064 6.10274 25.0064H21.0104C22.7231 25.0064 24.1161 23.582 24.1161 21.8705V13.2045H22.8736V21.8705H22.8747Z" fill="#691C79"/>
<path d="M24.2749 3.69827C23.3369 2.7591 21.7001 2.7591 20.7609 3.69827L12.4274 12.0318C12.3481 12.1111 12.2909 12.2114 12.2641 12.3199L11.3868 15.8328C11.3343 16.0439 11.3961 16.2679 11.5501 16.4231C11.6679 16.5409 11.8266 16.6051 11.9888 16.6051C12.0389 16.6051 12.0891 16.5993 12.1393 16.5864L15.6533 15.7079C15.7629 15.6811 15.8621 15.6239 15.9414 15.5446L24.2749 7.2111C24.7439 6.7421 25.0029 6.11794 25.0029 5.4541C25.0029 4.79027 24.7451 4.16727 24.2749 3.69827ZM15.1854 14.5448L12.8428 15.1304L13.4284 12.7878L20.3223 5.89394L22.0793 7.65094L15.1854 14.5448ZM23.3964 6.3326L22.9578 6.77127L21.2008 5.01427L21.6394 4.5756C22.1084 4.1066 22.9274 4.1066 23.3964 4.5756C23.6309 4.8101 23.7604 5.1216 23.7604 5.4541C23.7604 5.7866 23.6309 6.0981 23.3964 6.3326Z" fill="#691C79"/>
</svg>
