<svg width="36" height="36" viewBox="0 0 36 36" fill="none" xmlns="http://www.w3.org/2000/svg">
<path d="M17.9999 26.6626C8.88744 26.6626 4.7812 18.6189 4.61245 18.2814C4.49995 18.0564 4.49995 17.8313 4.61245 17.6063C4.7812 17.2688 8.88744 9.2251 17.9999 9.2251C27.1124 9.2251 31.2187 17.2688 31.3874 17.6063C31.4999 17.8313 31.4999 18.0564 31.3874 18.2814C31.2187 18.6751 27.1124 26.6626 17.9999 26.6626ZM6.13119 18.0001C6.97494 19.4626 10.8562 25.2001 17.9999 25.2001C25.1437 25.2001 29.0249 19.4626 29.8687 18.0001C29.0249 16.5376 25.1437 10.8001 17.9999 10.8001C10.8562 10.8001 6.97494 16.5376 6.13119 18.0001Z" fill="#691C79"/>
<path d="M17.9999 25.0876C14.0624 25.0876 10.9124 21.8814 10.9124 18.0001C10.9124 14.1189 14.1186 10.9126 17.9999 10.9126C21.8811 10.9126 25.0874 14.1189 25.0874 18.0001C25.0874 21.8814 21.9374 25.0876 17.9999 25.0876ZM17.9999 12.3751C14.9061 12.3751 12.3749 14.9064 12.3749 18.0001C12.3749 21.0939 14.9061 23.6251 17.9999 23.6251C21.0936 23.6251 23.6249 21.0939 23.6249 18.0001C23.6249 14.9064 21.0936 12.3751 17.9999 12.3751Z" fill="#691C79"/>
<path d="M18 21.9376C15.8625 21.9376 14.0625 20.1939 14.0625 18.0001C14.0625 17.6064 14.4 17.2689 14.7938 17.2689C15.1875 17.2689 15.525 17.6064 15.525 18.0001C15.525 19.3501 16.5937 20.4189 17.9437 20.4189C19.2937 20.4189 20.3625 19.3501 20.3625 18.0001C20.3625 16.6501 19.2937 15.5814 17.9437 15.5814C17.55 15.5814 17.2125 15.2439 17.2125 14.8501C17.2125 14.4564 17.55 14.1189 17.9437 14.1189C20.0812 14.1189 21.8812 15.8626 21.8812 18.0564C21.8812 20.2501 20.1375 21.9376 18 21.9376Z" fill="#691C79"/>
</svg>
