<svg width="29" height="29" viewBox="0 0 29 29" fill="none" xmlns="http://www.w3.org/2000/svg">
<path fill-rule="evenodd" clip-rule="evenodd" d="M2.99414 0H26.0059C27.6551 0 29 1.34489 29 2.99414V26.0059C29 27.6551 27.6551 29 26.0059 29H2.99414C1.34489 29 0 27.6551 0 26.0059V2.99414C0 1.34489 1.34489 0 2.99414 0ZM11.8916 20.1662H5.18135V8.83378H11.6297V10.8086H7.60215V13.4772H11.3466V15.445H7.60215V18.1914H11.8987V20.1662H11.8916ZM23.8257 20.1662H21.3483L16.5492 12.833C16.3014 12.4508 16.1174 12.1464 16.0042 11.9129H15.9688C16.0112 12.3022 16.0325 12.9038 16.0325 13.7178V20.1662H13.7462V8.83378H16.3793L21.0015 15.9546C21.3058 16.4289 21.4969 16.7261 21.5607 16.8536H21.596C21.5465 16.5775 21.5253 16.0537 21.5253 15.2892V8.8267H23.8186V20.1591L23.8257 20.1662Z" fill="white"/>
</svg>
