<svg width="35" height="35" viewBox="0 0 35 35" fill="none" xmlns="http://www.w3.org/2000/svg">
<g clip-path="url(#clip0_158_1162)">
<path d="M26.7238 8.2843C26.5492 8.11073 26.3126 8.01324 26.066 8.01324C25.8193 8.01324 25.5827 8.11073 25.4082 8.2843L17.9984 15.6869L10.5918 8.27195C10.417 8.09782 10.1798 8 9.93248 8C9.68517 8 9.44799 8.09782 9.27312 8.27195C9.09824 8.44607 9 8.68223 9 8.92848C9 9.17473 9.09824 9.41089 9.27312 9.58502L16.6828 17L9.27312 24.415C9.09865 24.5891 9.00081 24.8251 9.0011 25.0711C9.00139 25.317 9.09979 25.5528 9.27467 25.7265C9.44954 25.9002 9.68656 25.9977 9.93358 25.9974C10.1806 25.9971 10.4174 25.8991 10.5918 25.725L17.9984 18.3131L25.4082 25.7281C25.583 25.9022 25.8202 26 26.0675 26C26.3148 26 26.552 25.9022 26.7269 25.7281C26.9018 25.5539 27 25.3178 27 25.0715C27 24.8253 26.9018 24.5891 26.7269 24.415L19.3141 17L26.7269 9.58502C26.898 9.41121 26.9935 9.17739 26.993 8.93403C26.9924 8.69067 26.8957 8.45729 26.7238 8.2843Z" fill="white"/>
</g>
<defs>
<clipPath id="clip0_158_1162">
<rect width="35" height="35" fill="white"/>
</clipPath>
</defs>
</svg>
