<svg width="15" height="16" viewBox="0 0 15 16" fill="none" xmlns="http://www.w3.org/2000/svg">
<path d="M7.48036 0.492676C3.40026 0.492676 0.0888672 3.80406 0.0888672 7.88417C0.0888672 11.9643 3.40026 15.2757 7.48036 15.2757H11.1761V13.7974H7.48036C4.27245 13.7974 1.56717 11.0921 1.56717 7.88417C1.56717 4.67626 4.27245 1.97097 7.48036 1.97097C10.6883 1.97097 13.3936 4.67626 13.3936 7.88417V8.94115C13.3936 9.52508 12.8688 10.1016 12.2848 10.1016C11.7009 10.1016 11.1761 9.52508 11.1761 8.94115V7.88417C11.1761 5.84412 9.52041 4.18842 7.48036 4.18842C5.44031 4.18842 3.78461 5.84412 3.78461 7.88417C3.78461 9.92422 5.44031 11.5799 7.48036 11.5799C8.50039 11.5799 9.43172 11.166 10.0969 10.4934C10.5774 11.1512 11.4052 11.5799 12.2848 11.5799C13.741 11.5799 14.8719 10.3973 14.8719 8.94115V7.88417C14.8719 3.80406 11.5605 0.492676 7.48036 0.492676ZM7.48036 10.1016C6.25337 10.1016 5.26291 9.11116 5.26291 7.88417C5.26291 6.65718 6.25337 5.66672 7.48036 5.66672C8.70735 5.66672 9.69781 6.65718 9.69781 7.88417C9.69781 9.11116 8.70735 10.1016 7.48036 10.1016Z" fill="white" fill-opacity="0.5"/>
</svg>
