<svg width="17" height="16" viewBox="0 0 17 16" fill="none" xmlns="http://www.w3.org/2000/svg">
<path d="M14.4396 12.7394C15.2358 11.7815 15.7895 10.646 16.0539 9.42883C16.3184 8.2117 16.2858 6.94877 15.959 5.74689C15.6321 4.54501 15.0206 3.43953 14.1761 2.52397C13.3317 1.60842 12.2791 0.909716 11.1075 0.486976C9.93591 0.0642366 8.67973 -0.0701048 7.44523 0.0953168C6.21073 0.260738 5.03423 0.721056 4.01525 1.43733C2.99628 2.1536 2.16481 3.10476 1.59118 4.21034C1.01755 5.31592 0.718639 6.54339 0.71973 7.78893C0.720148 9.59958 1.35821 11.3522 2.52196 12.7394L2.51087 12.7488C2.54968 12.7954 2.59403 12.8353 2.63394 12.8813C2.68383 12.9384 2.73761 12.9922 2.78916 13.0476C2.94438 13.2161 3.10404 13.378 3.27146 13.5299C3.32246 13.5765 3.37512 13.6197 3.42668 13.6641C3.60407 13.8171 3.78646 13.9623 3.9755 14.0976C3.99989 14.1142 4.02206 14.1358 4.04646 14.153V14.1464C5.34483 15.06 6.89372 15.5504 8.48135 15.5504C10.069 15.5504 11.6179 15.06 12.9162 14.1464V14.153C12.9406 14.1358 12.9623 14.1142 12.9872 14.0976C13.1757 13.9617 13.3586 13.8171 13.536 13.6641C13.5876 13.6197 13.6402 13.5759 13.6912 13.5299C13.8587 13.3775 14.0183 13.2161 14.1735 13.0476C14.2251 12.9922 14.2783 12.9384 14.3288 12.8813C14.3681 12.8353 14.413 12.7954 14.4518 12.7482L14.4396 12.7394ZM8.4808 3.35403C8.97419 3.35403 9.4565 3.50034 9.86674 3.77445C10.277 4.04857 10.5967 4.43818 10.7855 4.89401C10.9743 5.34984 11.0237 5.85143 10.9275 6.33534C10.8312 6.81925 10.5936 7.26375 10.2448 7.61263C9.89589 7.96151 9.45139 8.1991 8.96748 8.29536C8.48356 8.39161 7.98198 8.34221 7.52614 8.1534C7.07031 7.96459 6.6807 7.64484 6.40659 7.2346C6.13248 6.82436 5.98617 6.34205 5.98617 5.84866C5.98617 5.18705 6.24899 4.55253 6.71683 4.08469C7.18466 3.61686 7.81918 3.35403 8.4808 3.35403V3.35403ZM4.04978 12.7394C4.0594 12.0115 4.35521 11.3166 4.87321 10.8052C5.39121 10.2937 6.08975 10.0067 6.81771 10.0064H10.1439C10.8718 10.0067 11.5704 10.2937 12.0884 10.8052C12.6064 11.3166 12.9022 12.0115 12.9118 12.7394C11.696 13.835 10.1174 14.4413 8.4808 14.4413C6.84418 14.4413 5.26559 13.835 4.04978 12.7394V12.7394Z" fill="white" fill-opacity="0.5"/>
</svg>
