<svg width="15" height="17" viewBox="0 0 15 17" fill="none" xmlns="http://www.w3.org/2000/svg">
<path d="M11.9159 5.83567H13.3942C13.5902 5.83567 13.7782 5.91354 13.9168 6.05216C14.0554 6.19078 14.1333 6.37878 14.1333 6.57482V15.4446C14.1333 15.6406 14.0554 15.8286 13.9168 15.9673C13.7782 16.1059 13.5902 16.1838 13.3942 16.1838H1.56776C1.37173 16.1838 1.18372 16.1059 1.04511 15.9673C0.906488 15.8286 0.828613 15.6406 0.828613 15.4446V6.57482C0.828613 6.37878 0.906488 6.19078 1.04511 6.05216C1.18372 5.91354 1.37173 5.83567 1.56776 5.83567H3.04606V5.09652C3.04606 3.92031 3.51331 2.79228 4.34501 1.96057C5.17672 1.12887 6.30475 0.661621 7.48096 0.661621C8.65717 0.661621 9.7852 1.12887 10.6169 1.96057C11.4486 2.79228 11.9159 3.92031 11.9159 5.09652V5.83567ZM10.4376 5.83567V5.09652C10.4376 4.31238 10.1261 3.56036 9.57159 3.00589C9.01712 2.45142 8.2651 2.13992 7.48096 2.13992C6.69682 2.13992 5.9448 2.45142 5.39033 3.00589C4.83586 3.56036 4.52436 4.31238 4.52436 5.09652V5.83567H10.4376ZM6.74181 10.2706V11.7489H8.22011V10.2706H6.74181ZM3.78521 10.2706V11.7489H5.26351V10.2706H3.78521ZM9.69841 10.2706V11.7489H11.1767V10.2706H9.69841Z" fill="white" fill-opacity="0.5"/>
</svg>
