<svg width="31" height="31" viewBox="0 0 31 31" fill="none" xmlns="http://www.w3.org/2000/svg">
<path d="M15.5 28.0938C13.0092 28.0938 10.5743 27.3551 8.50329 25.9713C6.43226 24.5875 4.81809 22.6206 3.8649 20.3194C2.91171 18.0182 2.66231 15.486 3.14824 13.0431C3.63417 10.6001 4.83361 8.35615 6.59488 6.59488C8.35615 4.83361 10.6001 3.63417 13.0431 3.14824C15.486 2.66231 18.0182 2.91171 20.3194 3.8649C22.6206 4.81809 24.5875 6.43226 25.9713 8.50329C27.3551 10.5743 28.0938 13.0092 28.0938 15.5C28.0938 18.8401 26.7669 22.0433 24.4051 24.4051C22.0433 26.7669 18.8401 28.0938 15.5 28.0938ZM15.5 4.84376C13.3924 4.84376 11.3321 5.46873 9.57971 6.63966C7.8273 7.81058 6.46146 9.47486 5.65491 11.422C4.84837 13.3692 4.63734 15.5118 5.04851 17.5789C5.45969 19.646 6.4746 21.5448 7.9649 23.0351C9.4552 24.5254 11.354 25.5403 13.4211 25.9515C15.4882 26.3627 17.6308 26.1516 19.578 25.3451C21.5252 24.5385 23.1894 23.1727 24.3604 21.4203C25.5313 19.6679 26.1563 17.6076 26.1563 15.5C26.1563 12.6738 25.0335 9.96333 23.0351 7.9649C21.0367 5.96646 18.3262 4.84376 15.5 4.84376Z" fill="#EBD8EF"/>
<path d="M15.5 16.4688C14.542 16.4688 13.6055 16.1847 12.809 15.6524C12.0124 15.1202 11.3916 14.3637 11.025 13.4786C10.6583 12.5935 10.5624 11.6196 10.7493 10.68C10.9362 9.74044 11.3975 8.87736 12.075 8.19995C12.7524 7.52254 13.6154 7.06122 14.555 6.87432C15.4946 6.68743 16.4685 6.78335 17.3536 7.14996C18.2387 7.51657 18.9952 8.13741 19.5274 8.93396C20.0597 9.73051 20.3438 10.667 20.3438 11.625C20.3438 12.9096 19.8334 14.1417 18.9251 15.0501C18.0167 15.9584 16.7846 16.4688 15.5 16.4688ZM15.5 8.71875C14.9252 8.71875 14.3633 8.8892 13.8854 9.20854C13.4074 9.52789 13.0349 9.98178 12.815 10.5128C12.595 11.0439 12.5375 11.6282 12.6496 12.192C12.7617 12.7557 13.0385 13.2736 13.445 13.68C13.8514 14.0865 14.3693 14.3633 14.933 14.4754C15.4968 14.5875 16.0811 14.53 16.6122 14.31C17.1432 14.0901 17.5971 13.7176 17.9165 13.2396C18.2358 12.7617 18.4063 12.1998 18.4063 11.625C18.4063 10.8542 18.1001 10.115 17.555 9.56997C17.01 9.02495 16.2708 8.71875 15.5 8.71875Z" fill="#EBD8EF"/>
<path d="M24.7514 23.25C24.617 23.2509 24.4838 23.2238 24.3604 23.1705C24.237 23.1171 24.126 23.0386 24.0346 22.94C23.0063 21.8184 21.7565 20.9225 20.3641 20.3088C18.9717 19.6952 17.4671 19.3772 15.9455 19.375H15.0543C12.218 19.3689 9.4906 20.4668 7.44957 22.4363C7.261 22.5919 7.02055 22.6704 6.77648 22.6562C6.5324 22.6419 6.30275 22.5359 6.13358 22.3594C5.96442 22.1828 5.86825 21.9489 5.86438 21.7044C5.86051 21.46 5.94921 21.2231 6.1127 21.0413C8.51121 18.723 11.7185 17.4304 15.0543 17.4375H15.9455C17.734 17.4416 19.5024 17.8154 21.1395 18.5356C22.7766 19.2558 24.2471 20.3068 25.4586 21.6225C25.5866 21.7605 25.6717 21.9329 25.7033 22.1184C25.735 22.304 25.7119 22.4947 25.6368 22.6674C25.5618 22.84 25.4381 22.987 25.2809 23.0905C25.1237 23.194 24.9397 23.2494 24.7514 23.25Z" fill="#EBD8EF"/>
</svg>
