<svg width="24" height="24" viewBox="0 0 24 24" fill="none" xmlns="http://www.w3.org/2000/svg">
<path d="M6 2C4.9 2 4.01 2.9 4.01 4L4 20C4 21.1 4.89 22 5.99 22H18C19.1 22 20 21.1 20 20V8L14 2H6ZM13 9V3.5L18.5 9H13Z" fill="#CD9DD7"/>
<path d="M7.68799 16.8931V17.4644H5.83252V16.8931H7.68799ZM6.0498 15.4453V19H5.31738V15.4453H6.0498ZM8.21045 15.4453V19H7.48047V15.4453H8.21045ZM10.3638 15.4453V19H9.63379V15.4453H10.3638ZM11.4575 15.4453V16.019H8.55713V15.4453H11.4575ZM12.2095 15.4453H12.8296L13.7427 18.0552L14.6558 15.4453H15.2759L13.9917 19H13.4937L12.2095 15.4453ZM11.875 15.4453H12.4927L12.605 17.9893V19H11.875V15.4453ZM14.9927 15.4453H15.6128V19H14.8804V17.9893L14.9927 15.4453ZM18.54 18.4287V19H16.7505V18.4287H18.54ZM16.9873 15.4453V19H16.2549V15.4453H16.9873Z" fill="#1C052C"/>
</svg>
