<svg width="4" height="12" viewBox="0 0 4 12" fill="none" xmlns="http://www.w3.org/2000/svg">
<path d="M1.95008 9.00007C1.55008 9.01007 1.18008 9.18007 0.910075 9.48007C0.640075 9.77007 0.490076 10.1501 0.510076 10.5501C0.520076 10.9501 0.690075 11.3201 0.990075 11.6001C1.26008 11.8601 1.62008 12.0001 2.00008 12.0001C2.02008 12.0001 2.04008 12.0001 2.05008 12.0001C2.45008 11.9901 2.82008 11.8201 3.09008 11.5201C3.36008 11.2301 3.51008 10.8501 3.49008 10.4401C3.47008 10.0301 3.31008 9.67007 3.01008 9.40007C2.73008 9.13007 2.35008 8.98007 1.95008 9.00007ZM2.50008 10.4801C2.50008 10.6101 2.46008 10.7401 2.37008 10.8401C2.27008 10.9401 2.15008 11.0001 2.02008 11.0001C1.89008 11.0001 1.76008 10.9601 1.66008 10.8701C1.56008 10.7801 1.51008 10.6601 1.50008 10.5201C1.50008 10.3901 1.54008 10.2601 1.63008 10.1601C1.72008 10.0601 1.85008 10.0001 1.98008 10.0001C1.99008 10.0001 1.99008 10.0001 2.00008 10.0001C2.13008 10.0001 2.25008 10.0501 2.34008 10.1301C2.44008 10.2301 2.50008 10.3501 2.50008 10.4801Z" fill="#1C052C"/>
<path d="M2 4.5C1.17 4.5 0.5 5.17 0.5 6C0.5 6.83 1.17 7.5 2 7.5C2.83 7.5 3.5 6.83 3.5 6C3.5 5.17 2.83 4.5 2 4.5ZM2 6.5C1.72 6.5 1.5 6.28 1.5 6C1.5 5.72 1.72 5.5 2 5.5C2.28 5.5 2.5 5.72 2.5 6C2.5 6.28 2.28 6.5 2 6.5Z" fill="#1C052C"/>
<path d="M2 3C2.83 3 3.5 2.33 3.5 1.5C3.5 0.67 2.83 0 2 0C1.17 0 0.5 0.67 0.5 1.5C0.5 2.33 1.17 3 2 3ZM2 1C2.28 1 2.5 1.22 2.5 1.5C2.5 1.78 2.28 2 2 2C1.72 2 1.5 1.78 1.5 1.5C1.5 1.22 1.72 1 2 1Z" fill="#1C052C"/>
</svg>
