<svg width="25" height="25" viewBox="0 0 25 25" fill="none" xmlns="http://www.w3.org/2000/svg">
<path d="M21.8752 10.9374H20.8335V9.89575C20.8335 9.61949 20.7238 9.35453 20.5284 9.15918C20.3331 8.96383 20.0681 8.85409 19.7918 8.85409C19.5156 8.85409 19.2506 8.96383 19.0553 9.15918C18.8599 9.35453 18.7502 9.61949 18.7502 9.89575V10.9374H17.7085C17.4322 10.9374 17.1673 11.0472 16.9719 11.2425C16.7766 11.4379 16.6668 11.7028 16.6668 11.9791C16.6668 12.2554 16.7766 12.5203 16.9719 12.7157C17.1673 12.911 17.4322 13.0208 17.7085 13.0208H18.7502V14.0624C18.7502 14.3387 18.8599 14.6036 19.0553 14.799C19.2506 14.9943 19.5156 15.1041 19.7918 15.1041C20.0681 15.1041 20.3331 14.9943 20.5284 14.799C20.7238 14.6036 20.8335 14.3387 20.8335 14.0624V13.0208H21.8752C22.1514 13.0208 22.4164 12.911 22.6117 12.7157C22.8071 12.5203 22.9168 12.2554 22.9168 11.9791C22.9168 11.7028 22.8071 11.4379 22.6117 11.2425C22.4164 11.0472 22.1514 10.9374 21.8752 10.9374ZM13.8543 12.7291C14.4101 12.248 14.8559 11.6529 15.1615 10.9843C15.467 10.3157 15.6252 9.5892 15.6252 8.85409C15.6252 7.47275 15.0764 6.14799 14.0997 5.17124C13.1229 4.19449 11.7982 3.64575 10.4168 3.64575C9.03549 3.64575 7.71073 4.19449 6.73398 5.17124C5.75723 6.14799 5.2085 7.47275 5.2085 8.85409C5.20849 9.5892 5.36662 10.3157 5.67217 10.9843C5.97771 11.6529 6.42352 12.248 6.97933 12.7291C5.52114 13.3894 4.28398 14.4557 3.41577 15.8005C2.54755 17.1453 2.08503 18.7117 2.0835 20.3124C2.0835 20.5887 2.19324 20.8536 2.38859 21.049C2.58394 21.2443 2.8489 21.3541 3.12516 21.3541C3.40143 21.3541 3.66638 21.2443 3.86173 21.049C4.05708 20.8536 4.16683 20.5887 4.16683 20.3124C4.16683 18.6548 4.82531 17.0651 5.99741 15.893C7.16952 14.7209 8.75923 14.0624 10.4168 14.0624C12.0744 14.0624 13.6641 14.7209 14.8362 15.893C16.0084 17.0651 16.6668 18.6548 16.6668 20.3124C16.6668 20.5887 16.7766 20.8536 16.9719 21.049C17.1673 21.2443 17.4322 21.3541 17.7085 21.3541C17.9848 21.3541 18.2497 21.2443 18.4451 21.049C18.6404 20.8536 18.7502 20.5887 18.7502 20.3124C18.7486 18.7117 18.2861 17.1453 17.4179 15.8005C16.5497 14.4557 15.3125 13.3894 13.8543 12.7291ZM10.4168 11.9791C9.79876 11.9791 9.19458 11.7958 8.68067 11.4524C8.16677 11.109 7.76623 10.621 7.52971 10.05C7.29318 9.47895 7.2313 8.85062 7.35188 8.24443C7.47246 7.63824 7.77008 7.08142 8.20712 6.64438C8.64416 6.20734 9.20098 5.90971 9.80717 5.78913C10.4134 5.66855 11.0417 5.73044 11.6127 5.96696C12.1837 6.20349 12.6718 6.60402 13.0152 7.11793C13.3586 7.63183 13.5418 8.23602 13.5418 8.85409C13.5418 9.68289 13.2126 10.4777 12.6265 11.0638C12.0405 11.6498 11.2456 11.9791 10.4168 11.9791Z" fill="#1C052C"/>
</svg>
